<svg width="28" height="28" viewBox="0 0 28 28" xmlns="http://www.w3.org/2000/svg"><title>Group 29</title><g fill="none" fill-rule="evenodd"><circle fill="#414154" cx="14" cy="14" r="14"/><g fill="#FFF"><path d="M20.593 8.096a1.372 1.372 0 0 0-1.04-.47H8.778l-.04-.24a1.574 1.574 0 0 0-1.54-1.37h-.683a.51.51 0 0 0 0 1.02h.683c.254 0 .496.23.53.498l.517 2.99.91 6.405c.092.766.76 1.368 1.52 1.368h8.71a.51.51 0 0 0 0-1.02h-8.71c-.245 0-.478-.22-.51-.482l-.074-.53 8.527-.65c.76 0 1.428-.588 1.52-1.34l.845-4.834c.06-.507-.08-.998-.39-1.346M10.814 18.886a1.048 1.048 0 0 0 0 2.092c.576 0 1.046-.47 1.046-1.045 0-.577-.47-1.047-1.046-1.047M18.32 18.886a1.048 1.048 0 0 0 0 2.092c.578 0 1.047-.47 1.047-1.045 0-.577-.47-1.047-1.046-1.047"/></g></g></svg>