<svg width="35" height="30" viewBox="0 0 35 30" xmlns="http://www.w3.org/2000/svg" xmlns:xlink="http://www.w3.org/1999/xlink"><title>菜单-3</title><defs><path id="a" d="M.003.017v29.01h34.864V.017H.003z"/></defs><g fill="none" fill-rule="evenodd"><g><mask id="b" fill="#fff"><use xlink:href="#a"/></mask><path d="M2.51 24.076c-1.325 0-2.51 1.115-2.51 2.44s1.185 2.51 2.51 2.51c1.325 0 2.44-1.185 2.44-2.51 0-1.325-1.115-2.44-2.44-2.44zM2.51 12.08C1.186 12.08 0 13.198 0 14.523c0 1.325 1.185 2.44 2.51 2.44 1.325 0 2.44-1.115 2.44-2.44s-1.115-2.44-2.44-2.44zM11.436 4.76h21.13c1.255 0 2.3-.977 2.3-2.232 0-1.255-1.045-2.3-2.3-2.3h-21.13a2.322 2.322 0 0 0-2.3 2.3c0 1.255 1.045 2.23 2.3 2.23zM2.51.017C1.186.017 0 1.203 0 2.527 0 3.854 1.185 4.97 2.51 4.97c1.325 0 2.44-1.117 2.44-2.442 0-1.325-1.115-2.51-2.44-2.51z" fill="#000" mask="url(#b)"/></g><path d="M32.566 12.22h-21.13a2.322 2.322 0 0 0-2.3 2.302c0 1.255 1.045 2.3 2.3 2.3h21.13c1.255 0 2.3-1.045 2.3-2.3s-1.045-2.3-2.3-2.3zM32.566 24.215h-21.13a2.322 2.322 0 0 0-2.3 2.3c0 1.257 1.045 2.303 2.3 2.303h21.13c1.255 0 2.3-1.046 2.3-2.302 0-1.255-1.045-2.3-2.3-2.3z" fill="#000"/></g></svg>